<?xml version="1.0" standalone="no"?>
<!DOCTYPE svg PUBLIC "-//W3C//DTD SVG 20010904//EN"
 "http://www.w3.org/TR/2001/REC-SVG-20010904/DTD/svg10.dtd">
<svg version="1.0" xmlns="http://www.w3.org/2000/svg"
 width="225.000000pt" height="225.000000pt" viewBox="0 0 225.000000 225.000000"
 preserveAspectRatio="xMidYMid meet">

<g transform="translate(0.000000,225.000000) scale(0.100000,-0.100000)"
fill="#000000" stroke="none">
<path d="M0 2205 c0 -25 4 -45 9 -45 13 0 67 -136 76 -187 9 -58 -18 -147 -56
-185 -29 -29 -29 -31 -29 -140 l0 -111 53 49 c28 27 66 60 82 72 l30 23 -32
-16 c-18 -8 -40 -15 -51 -15 -69 0 -48 127 33 199 36 31 129 80 182 95 20 6
21 5 12 -36 -14 -64 -65 -163 -103 -199 -30 -28 -34 -38 -40 -107 -10 -111
-40 -189 -87 -234 -22 -20 -48 -40 -59 -43 -18 -6 -20 -15 -19 -88 1 -60 3
-72 8 -47 10 50 55 129 104 181 l42 44 6 -30 c4 -16 7 -69 8 -117 1 -101 -15
-155 -62 -206 -52 -54 -87 -38 -100 48 -2 14 -4 -26 -4 -87 0 -99 2 -115 20
-130 21 -20 57 -85 57 -104 0 -7 -7 -20 -16 -30 -15 -17 -14 -18 12 -24 75
-17 131 -54 165 -108 17 -29 17 -30 -5 -54 -15 -16 -37 -25 -71 -29 -47 -6
-74 2 -157 44 -5 2 -8 -129 -8 -292 l0 -296 1125 0 1125 0 0 351 0 352 -22
-33 c-28 -41 -118 -104 -171 -120 -55 -16 -138 -4 -144 21 -3 10 -10 19 -15
19 -5 0 0 17 12 37 24 43 82 89 126 98 67 15 66 15 48 32 -38 39 17 129 109
179 l57 30 -46 0 c-60 -1 -73 16 -55 76 8 27 29 58 58 86 l44 43 -23 19 c-33
26 -33 128 0 181 26 42 30 99 7 99 -21 0 -42 38 -53 96 -10 61 6 136 43 201
25 41 25 46 25 262 l0 221 -1125 0 -1125 0 0 -45z m358 -27 c-11 -62 -60 -173
-91 -206 -25 -27 -70 -50 -109 -57 -23 -4 -30 -1 -38 20 -12 33 1 103 29 148
25 41 74 81 145 119 72 38 75 37 64 -24z m1501 22 c116 -63 175 -141 169 -227
-4 -61 -23 -73 -78 -48 -78 35 -135 127 -158 253 -6 34 -6 52 0 52 6 0 36 -14
67 -30z m314 -97 c54 -122 59 -201 16 -286 -28 -55 -39 -61 -67 -34 -47 44
-69 135 -52 212 13 56 59 165 70 165 4 0 19 -26 33 -57z m-1031 -163 c17 0 28
-3 24 -7 -4 -5 -13 -8 -19 -8 -7 0 -12 -15 -12 -35 0 -28 4 -35 20 -35 13 0
20 7 20 20 1 11 4 26 8 33 5 6 5 17 1 24 -5 8 -2 9 10 5 10 -4 27 -7 37 -7 11
0 18 -4 15 -9 -3 -5 -15 -7 -26 -4 -11 3 -20 0 -20 -6 0 -6 7 -11 15 -11 8 0
15 -5 15 -11 0 -6 -6 -9 -14 -6 -8 3 -17 -1 -20 -9 -4 -9 1 -14 15 -14 11 0
22 -7 25 -15 10 -25 24 -17 24 14 0 16 7 34 15 41 17 14 69 5 59 -11 -4 -8
-10 -7 -17 0 -17 17 -27 13 -38 -16 -12 -33 2 -53 26 -33 18 15 21 0 3 -18 -9
-9 -8 -12 5 -12 11 0 23 15 33 40 16 40 37 48 27 10 -3 -11 0 -20 6 -20 6 0
11 7 11 15 0 8 4 15 8 15 18 0 20 -12 6 -38 -24 -46 -15 -70 12 -34 15 19 19
5 5 -17 -7 -10 -2 -20 16 -35 l26 -20 28 32 c40 44 57 40 20 -5 -28 -34 -32
-53 -10 -53 5 0 9 7 9 15 0 20 43 47 63 39 18 -7 30 -31 18 -39 -5 -2 -11 5
-14 16 -5 17 -9 19 -25 10 -34 -18 -40 -70 -6 -57 8 3 14 1 14 -4 0 -6 -5 -10
-12 -10 -6 0 -1 -11 12 -25 24 -25 24 -25 32 -6 10 29 57 39 75 16 16 -22 17
-35 3 -35 -5 0 -10 9 -10 20 0 24 -17 26 -42 3 -25 -22 -23 -43 5 -44 16 -1
18 -2 5 -6 -21 -5 -23 -14 -6 -31 9 -9 14 -6 23 11 15 30 69 31 73 1 3 -22
-22 -50 -50 -55 -11 -3 -15 -9 -10 -16 6 -9 18 -7 50 7 23 11 42 15 42 11 0
-5 -13 -14 -30 -21 -29 -12 -42 -40 -19 -40 8 0 7 -6 -2 -17 -13 -15 -11 -16
16 -10 17 3 38 9 48 12 10 4 17 3 17 -4 0 -6 -4 -11 -9 -11 -5 0 -22 -5 -36
-10 -22 -8 -25 -13 -15 -25 6 -8 9 -19 5 -26 -5 -8 5 -9 39 -5 l46 7 -1 -33
c-1 -24 -3 -27 -6 -10 -5 25 -23 30 -23 7 0 -8 -4 -15 -10 -15 -5 0 -10 5 -10
10 0 6 -7 10 -15 10 -12 0 -14 -4 -5 -19 7 -13 7 -22 0 -26 -5 -3 -10 -16 -9
-28 0 -12 3 -16 6 -9 2 7 13 17 24 22 30 16 59 -4 59 -41 0 -17 -4 -28 -9 -25
-5 3 -7 15 -4 25 6 23 -10 34 -36 26 -27 -8 -35 -35 -11 -35 10 0 21 8 23 18
3 10 5 6 6 -10 1 -23 -3 -28 -24 -28 -16 0 -25 -6 -25 -16 0 -10 8 -15 23 -14
50 5 65 0 62 -17 -2 -10 -4 -24 -4 -30 -1 -7 -6 -13 -11 -13 -7 0 -7 6 0 20 9
16 8 20 -5 20 -8 0 -15 -7 -15 -15 0 -8 -5 -15 -11 -15 -6 0 -9 7 -5 15 3 9 0
15 -10 15 -11 0 -15 -6 -11 -20 3 -13 0 -20 -9 -20 -8 0 -14 -4 -14 -10 0 -5
5 -10 11 -10 6 0 3 -7 -6 -16 -25 -25 -14 -48 28 -58 30 -8 37 -14 35 -29 -5
-34 -34 -44 -68 -25 -25 14 -30 15 -30 3 0 -8 9 -24 20 -35 24 -24 25 -27 3
-34 -11 -3 -9 -4 6 -3 33 3 38 -19 6 -25 -14 -3 -25 -2 -25 2 0 4 -10 6 -22 5
-35 -4 -35 -4 -42 -21 -3 -8 -2 -12 4 -9 5 3 25 -3 44 -13 25 -14 32 -22 25
-33 -5 -8 -9 -9 -9 -3 0 11 -42 34 -60 34 -20 0 -9 -22 20 -38 16 -9 30 -21
30 -26 0 -10 -50 20 -66 39 -8 11 -12 10 -22 -5 -10 -16 -9 -18 3 -14 8 4 15
1 15 -5 0 -6 -6 -11 -14 -11 -17 0 -31 -18 -22 -27 3 -4 17 0 31 7 32 17 56 0
39 -27 -13 -20 -34 -29 -34 -14 0 6 7 11 15 11 8 0 15 5 15 10 0 14 -23 13
-38 -2 -9 -9 -16 -7 -31 6 -27 25 -32 7 -11 -39 11 -22 19 -43 20 -48 0 -9
-51 2 -64 14 -18 16 -37 10 -112 -37 -114 -71 -199 -94 -349 -94 -104 0 -136
4 -203 25 -78 24 -182 83 -234 132 l-26 25 -11 -21 c-12 -21 2 -31 14 -11 4 6
10 8 16 5 5 -3 -5 -19 -22 -36 -32 -31 -42 -31 -59 2 -9 16 -7 21 15 29 17 6
25 17 25 33 0 20 -4 23 -25 19 -14 -2 -25 -7 -25 -11 0 -4 -12 -6 -27 -5 -37
2 -37 2 -23 19 6 8 9 19 5 25 -3 5 0 10 8 10 18 0 28 33 16 51 -7 11 -9 10 -9
-3 0 -10 -8 -18 -17 -18 -13 0 -14 3 -5 12 24 24 11 29 -23 9 -19 -11 -37 -16
-40 -12 -3 5 12 17 33 28 21 10 37 24 35 30 -5 13 -43 5 -43 -10 0 -6 -3 -7
-6 -4 -4 3 -14 2 -24 -3 -13 -7 -20 -4 -29 16 -14 31 -14 34 -1 34 6 0 10 -7
10 -15 0 -8 7 -15 16 -15 14 0 14 3 4 15 -14 17 0 21 17 4 20 -20 37 1 18 21
-13 14 -13 19 -3 23 8 4 7 6 -4 6 -12 1 -17 8 -15 22 1 12 -3 24 -10 26 -7 2
-13 -8 -15 -24 -4 -35 -37 -39 -49 -5 -5 13 -5 22 1 22 6 0 10 -9 10 -20 0
-30 18 -24 22 8 2 21 8 27 26 26 12 0 21 4 19 10 -2 6 -25 10 -50 10 -26 -1
-47 3 -47 7 0 5 7 9 15 9 8 0 15 7 15 16 0 11 -6 14 -20 9 -11 -3 -20 -2 -20
4 0 5 19 14 42 18 38 8 43 12 44 36 1 26 -1 27 -47 27 -51 0 -62 14 -40 49 11
17 41 7 41 -14 0 -8 9 -15 20 -15 16 0 20 7 20 30 0 29 -2 30 -45 30 -32 0
-43 4 -39 13 3 8 18 11 43 9 56 -6 61 15 6 23 -28 5 -45 12 -45 21 0 10 6 11
26 4 41 -16 56 -13 49 10 -5 14 -2 20 9 20 9 0 16 5 16 11 0 6 -8 8 -20 4 -25
-8 -60 11 -60 33 0 38 46 56 70 27 15 -18 30 -11 30 14 0 26 -58 50 -71 30
-13 -21 -11 5 3 36 6 14 16 25 21 25 5 0 4 -7 -3 -15 -10 -12 -8 -16 15 -25
42 -16 50 -13 73 29 22 39 22 39 2 34 -22 -6 -60 21 -60 42 0 7 9 20 20 30 11
10 20 13 20 7 0 -7 -4 -12 -10 -12 -17 0 -11 -39 8 -49 24 -13 52 3 35 20 -9
9 -16 9 -29 -2 -16 -13 -16 -12 0 13 16 24 20 26 33 13 18 -19 27 -19 42 -1
10 12 7 15 -15 18 -50 6 -59 67 -11 76 21 4 60 -35 51 -51 -4 -7 2 -3 14 7 30
26 28 34 -13 53 -19 9 -35 20 -35 25 0 12 8 10 35 -8 20 -13 25 -14 25 -2 0 7
-7 23 -15 35 -8 12 -11 24 -6 27 4 3 16 -15 26 -39 18 -50 21 -51 50 -29 18
14 19 16 3 42 -12 18 -25 26 -40 25 -22 -3 -21 -1 7 22 17 14 33 25 38 25 12
0 8 -18 -5 -23 -9 -3 -5 -13 11 -31 29 -31 41 -33 48 -6 3 11 9 17 14 14 5 -3
18 -2 29 1 22 7 26 35 8 53 -7 7 -8 12 -4 12 5 0 3 6 -3 14 -10 12 -8 17 9 26
40 22 72 -16 33 -39 -14 -7 -15 -12 -5 -24 10 -12 19 -13 47 -4 34 10 34 11
14 25 -25 17 -22 60 4 76 24 15 50 -18 44 -56 -3 -23 -1 -25 14 -17 10 5 17
15 14 22 -12 39 -14 67 -6 67 6 0 13 -16 17 -35 6 -34 27 -47 37 -22 3 7 6 5
6 -5 1 -23 30 -23 38 -1 4 9 -1 30 -11 46 -21 37 -11 50 13 18 l19 -24 7 24
c10 32 25 40 42 23 8 -8 28 -14 45 -14z m804 -36 c81 -39 138 -94 153 -151 22
-80 7 -110 -51 -98 -32 7 -30 4 33 -54 78 -71 109 -128 109 -203 0 -91 -40
-105 -113 -39 -55 49 -84 125 -94 243 -5 70 -9 79 -40 108 -38 36 -75 104 -93
168 -6 24 -14 50 -17 59 -8 20 20 12 113 -33z m-486 -92 c1 -25 2 -25 14 -9 7
9 16 17 20 17 8 0 -37 -70 -45 -70 -9 0 -17 71 -11 87 7 21 22 4 22 -25z m649
-544 c24 -47 31 -74 31 -116 0 -123 -40 -155 -103 -82 -62 72 -76 160 -50 308
l6 34 42 -42 c23 -23 57 -69 74 -102z m-1875 -208 c28 -123 17 -202 -39 -276
-53 -70 -99 -23 -100 102 0 61 5 79 34 134 36 71 72 120 83 114 3 -3 14 -35
22 -74z m1788 -44 c35 -69 45 -143 26 -205 -24 -80 -58 -80 -111 -2 -45 65
-47 200 -6 309 l10 25 25 -34 c14 -19 39 -61 56 -93z m-1623 -341 c-11 -41
-53 -105 -69 -105 -17 0 -39 31 -61 87 -19 53 -20 64 -10 125 6 37 18 85 27
107 l16 40 54 -107 c51 -101 53 -109 43 -147z m1491 115 c7 -34 6 -67 -1 -98
-12 -54 -53 -122 -73 -122 -19 0 -52 55 -67 111 -11 42 -11 49 10 77 12 18 36
62 53 99 l31 68 19 -42 c10 -23 23 -65 28 -93z m-1279 -283 c-4 -4 -32 -8 -61
-10 -54 -2 -54 -2 -74 38 -10 22 -21 62 -24 90 l-5 49 86 -79 c47 -44 82 -83
78 -88z m1074 64 c-25 -76 -33 -82 -86 -75 -63 9 -81 21 -54 36 11 6 49 40 85
74 61 60 65 62 68 38 2 -13 -4 -46 -13 -73z m-1334 -32 c44 -14 110 -67 92
-75 -28 -12 -63 -47 -63 -63 0 -26 -65 -40 -113 -23 -70 23 -132 60 -155 91
-22 30 -22 30 -3 41 32 17 123 39 165 39 21 1 56 -4 77 -10z m1594 1 c22 -5
58 -16 80 -26 35 -14 38 -17 22 -29 -9 -7 -17 -17 -17 -23 0 -13 -92 -65 -140
-80 -49 -15 -103 -2 -110 26 -3 12 -22 33 -44 46 l-39 23 35 26 c18 14 45 30
58 36 32 12 104 13 155 1z m-1001 -69 c19 -21 13 -47 -15 -62 -27 -14 -39 -3
-39 35 0 50 23 62 54 27z m66 4 c0 -8 4 -15 9 -15 8 0 23 -51 17 -58 -8 -8
-35 12 -30 22 3 6 -1 3 -10 -8 -21 -26 -36 -12 -26 24 5 16 11 34 15 40 9 15
25 12 25 -5z m60 -20 c0 -19 5 -35 10 -35 6 0 10 15 10 33 0 31 2 33 37 32 21
0 38 -6 41 -14 3 -10 -2 -11 -19 -7 -23 7 -23 6 -4 -5 30 -18 36 -33 19 -45
-16 -13 -54 -7 -54 7 0 5 12 6 26 3 18 -5 25 -3 21 3 -4 6 -16 13 -28 16 -15
4 -23 0 -26 -14 -4 -14 -13 -19 -27 -17 -15 2 -22 12 -27 41 -4 27 -2 37 8 37
8 0 13 -12 13 -35z m160 21 c0 -8 4 -16 9 -18 14 -5 17 -51 4 -55 -7 -3 -13 2
-13 10 0 7 -6 14 -14 14 -8 0 -14 -3 -13 -6 1 -3 -2 -7 -8 -8 -12 -2 -9 23 7
55 13 25 28 29 28 8z m70 -117 c23 0 23 -1 5 -9 -33 -14 -75 -11 -93 7 -16 15
-14 16 23 10 22 -4 51 -7 65 -8z m-370 -9 c0 -13 -60 -13 -80 0 -11 7 -2 10
33 10 26 0 47 -4 47 -10z m185 -14 c14 -22 15 -28 1 -60 -21 -50 -59 -51 -83
-2 -15 32 -15 37 1 60 21 34 60 34 81 2z m413 -1 c108 -22 103 -19 91 -55 -16
-44 -37 -52 -85 -31 -40 19 -77 53 -87 84 -8 21 -13 20 81 2z m-828 -9 c0 -19
-64 -74 -96 -82 -30 -8 -52 10 -56 46 -3 22 2 26 47 36 70 17 105 17 105 0z
m238 -26 c23 -10 42 -21 42 -23 0 -21 -47 -90 -73 -106 -77 -48 -226 -50 -276
-3 l-26 24 40 34 c22 18 67 47 100 64 71 35 130 39 193 10z m476 -14 c28 -14
69 -41 91 -59 l39 -34 -27 -25 c-53 -50 -199 -45 -280 8 -32 21 -67 73 -67 99
0 3 19 15 43 26 54 26 130 20 201 -15z m-957 -108 c-3 -8 -6 -5 -6 6 -1 11 2
17 5 13 3 -3 4 -12 1 -19z m1253 12 c11 -8 7 -9 -15 -4 -37 8 -45 14 -19 14
10 0 26 -5 34 -10z"/>
<path d="M1067 1927 c-26 -40 -22 -64 12 -69 26 -4 30 -1 35 25 9 42 8 47 -8
47 -8 0 -16 5 -18 11 -2 7 -12 0 -21 -14z"/>
<path d="M859 1908 c-8 -16 -3 -50 8 -59 22 -19 36 2 24 34 -9 22 -27 36 -32
25z"/>
<path d="M775 1860 c3 -5 10 -10 16 -10 5 0 9 5 9 10 0 6 -7 10 -16 10 -8 0
-12 -4 -9 -10z"/>
<path d="M1350 1809 c0 -18 2 -19 15 -9 8 7 15 16 15 21 0 5 -7 9 -15 9 -9 0
-15 -9 -15 -21z"/>
<path d="M1034 1766 c-8 -34 -2 -59 16 -63 12 -4 13 -3 1 5 -10 7 -12 21 -8
46 6 41 1 49 -9 12z"/>
<path d="M1088 1725 c2 -14 6 -25 7 -25 1 0 5 11 7 25 3 16 1 25 -7 25 -8 0
-10 -9 -7 -25z"/>
<path d="M510 1670 c-12 -7 -11 -12 4 -29 22 -24 46 -28 46 -8 0 23 -34 47
-50 37z"/>
<path d="M1407 1640 c-15 -21 -23 -41 -18 -44 5 -4 12 3 16 14 4 11 11 17 17
14 6 -4 8 -2 4 4 -3 6 1 17 9 26 8 8 12 17 8 19 -5 3 -21 -12 -36 -33z"/>
<path d="M700 1655 c-10 -12 -8 -21 14 -50 15 -19 29 -35 32 -35 10 0 2 17
-21 44 -13 16 -22 33 -19 37 9 15 32 10 37 -8 4 -14 5 -12 6 5 1 26 -29 31
-49 7z"/>
<path d="M1460 1638 c0 -10 -5 -18 -12 -18 -6 0 -9 -3 -5 -6 3 -3 12 -2 21 3
10 6 12 13 6 23 -8 13 -10 12 -10 -2z"/>
<path d="M1673 1579 c-28 -10 -30 -39 -4 -39 23 0 48 28 35 39 -5 5 -19 5 -31
0z"/>
<path d="M1045 1560 c-3 -5 -12 -7 -20 -3 -10 3 -15 -1 -15 -13 0 -16 2 -17
10 -4 5 8 10 11 10 6 0 -5 6 -3 14 3 8 7 17 8 20 3 3 -5 -7 -15 -23 -22 -26
-10 -58 -56 -47 -67 2 -2 7 5 11 17 4 11 24 32 46 46 21 13 39 27 39 30 0 3
-4 2 -10 -1 -5 -3 -10 -1 -10 4 0 14 -17 14 -25 1z"/>
<path d="M1122 1525 c13 -11 23 -26 20 -33 -2 -7 2 -12 8 -12 9 0 10 -3 1 -13
-6 -8 -8 -17 -5 -20 6 -6 -19 -37 -31 -37 -3 0 -1 9 5 19 15 30 12 66 -8 84
-10 10 -23 17 -28 17 -4 0 2 -7 14 -16 26 -18 30 -65 6 -88 -21 -22 -60 -20
-84 4 -11 11 -20 16 -20 10 0 -18 47 -40 81 -38 19 1 41 0 49 -3 9 -2 14 2 12
10 -2 8 3 11 12 8 12 -5 13 -1 6 18 -6 16 -6 27 1 31 7 4 7 10 0 18 -6 7 -8
15 -5 19 3 3 -4 10 -15 17 -12 6 -19 15 -17 19 3 4 -2 8 -11 8 -12 0 -10 -6 9
-22z"/>
<path d="M985 1530 c-3 -5 -3 -10 1 -10 4 0 0 -6 -11 -13 -14 -11 -15 -16 -5
-22 8 -5 11 -4 6 3 -3 5 -1 12 6 14 6 2 12 12 14 21 3 19 -2 22 -11 7z"/>
<path d="M1034 1488 l-19 -23 25 20 c14 11 27 21 29 22 2 2 0 3 -6 3 -5 0 -18
-10 -29 -22z"/>
<path d="M1088 1473 c4 -19 2 -24 -8 -18 -9 5 -11 4 -6 -3 4 -7 0 -12 -11 -13
-11 0 -13 -3 -5 -6 27 -11 59 46 33 61 -4 3 -6 -6 -3 -21z"/>
<path d="M960 1461 c0 -6 5 -11 12 -11 9 0 9 -3 0 -12 -15 -15 -16 -32 -2 -23
6 3 13 -2 17 -12 10 -27 24 -33 71 -28 38 3 44 1 57 -24 8 -16 12 -31 10 -35
-3 -3 -2 -4 1 -1 4 2 15 -6 25 -19 26 -33 24 -84 -3 -113 -12 -13 -16 -23 -10
-23 19 0 43 45 42 81 0 60 -3 67 -27 80 -12 7 -24 17 -24 23 -1 6 -2 18 -3 26
-1 11 -14 15 -49 15 -26 0 -47 4 -47 9 0 4 -7 6 -15 2 -9 -3 -15 0 -15 9 0 8
-4 15 -10 15 -5 0 -7 6 -4 13 3 8 -2 20 -11 27 -10 8 -15 9 -15 1z"/>
<path d="M1035 1459 c-4 -6 -4 -13 -1 -16 3 -4 6 -1 6 6 0 7 5 9 12 5 7 -4 8
-3 4 4 -9 15 -13 15 -21 1z"/>
<path d="M516 1422 c-2 -4 4 -8 15 -8 10 0 19 4 19 8 0 4 -6 8 -14 8 -8 0 -17
-4 -20 -8z"/>
<path d="M906 1415 c-3 -8 -1 -15 4 -15 6 0 10 7 10 15 0 8 -2 15 -4 15 -2 0
-6 -7 -10 -15z"/>
<path d="M1220 1417 c0 -10 8 -17 18 -17 9 0 13 4 7 8 -5 4 -13 11 -17 16 -5
5 -8 2 -8 -7z"/>
<path d="M1566 1404 c-9 -8 -16 -20 -16 -27 0 -6 6 -3 13 6 6 10 26 21 42 26
l30 9 -27 1 c-15 1 -34 -6 -42 -15z"/>
<path d="M575 1400 l-30 -8 33 -1 c17 0 32 4 32 9 0 6 -1 9 -2 9 -2 -1 -16 -5
-33 -9z"/>
<path d="M360 1385 c0 -15 46 -32 57 -22 3 4 3 13 0 22 -8 20 -57 20 -57 0z"/>
<path d="M500 1390 c0 -12 69 -42 84 -36 6 2 -2 9 -19 15 -16 6 -38 16 -47 21
-12 7 -18 7 -18 0z"/>
<path d="M915 1390 c-3 -5 -10 -8 -14 -5 -14 8 0 -44 15 -55 33 -28 90 12 68
48 -13 20 -59 28 -69 12z m29 -12 c-5 -8 -2 -9 10 -5 14 6 17 2 14 -16 -2 -14
-10 -22 -23 -22 -23 0 -33 34 -13 46 18 12 20 11 12 -3z"/>
<path d="M1150 1385 c-21 -25 3 -67 37 -63 34 4 52 31 37 56 -15 23 -57 27
-74 7z m56 -23 c-2 -9 -10 -17 -19 -17 -17 0 -19 8 -10 32 7 17 31 4 29 -15z"/>
<path d="M1641 1384 c0 -11 3 -14 6 -6 3 7 2 16 -1 19 -3 4 -6 -2 -5 -13z"/>
<path d="M872 1360 c2 -31 28 -75 28 -47 0 9 -5 17 -11 17 -5 0 -7 4 -4 10 3
5 2 18 -4 27 -8 16 -10 14 -9 -7z"/>
<path d="M1000 1360 c0 -5 5 -10 11 -10 5 0 7 5 4 10 -3 6 -8 10 -11 10 -2 0
-4 -4 -4 -10z"/>
<path d="M1243 1347 c3 -8 -7 -21 -24 -31 -16 -9 -29 -23 -29 -29 0 -8 3 -9 8
-1 4 5 18 18 31 27 25 17 37 47 19 47 -6 0 -8 -6 -5 -13z"/>
<path d="M990 1329 c0 -16 -26 -39 -36 -31 -5 4 -4 0 2 -8 6 -8 11 -31 13 -50
2 -37 25 -80 42 -80 6 0 1 12 -10 26 -26 34 -27 84 -1 116 18 24 18 38 -2 38
-4 0 -8 -5 -8 -11z"/>
<path d="M1280 1310 c0 -5 7 -10 16 -10 8 0 12 5 9 10 -3 6 -10 10 -16 10 -5
0 -9 -4 -9 -10z"/>
<path d="M1328 1287 c-84 -74 -69 -141 21 -90 25 15 32 16 43 5 11 -11 7 -19
-20 -43 -18 -16 -30 -34 -27 -39 9 -14 92 -13 101 1 4 7 -1 16 -10 21 -9 5
-14 13 -11 18 3 4 7 36 10 70 4 51 2 61 -9 57 -10 -4 -13 0 -11 14 6 32 -44
24 -87 -14z"/>
<path d="M910 1306 c0 -2 7 -9 15 -16 13 -11 14 -10 9 4 -5 14 -24 23 -24 12z"/>
<path d="M761 1288 c0 -10 -9 -18 -19 -18 -10 0 -23 -5 -30 -12 -17 -17 -15
-119 3 -142 13 -17 18 -18 40 -6 20 10 27 11 40 0 17 -14 86 -7 125 15 l25 13
-30 7 c-17 3 -43 10 -60 14 -30 8 -30 8 13 15 33 6 42 12 38 23 -3 8 -6 24 -6
36 0 32 -12 45 -45 51 -17 3 -24 3 -17 0 14 -7 16 -44 2 -44 -5 0 -9 -6 -7
-12 1 -8 -9 -13 -26 -14 -28 -1 -30 3 -40 66 -3 14 -5 17 -6 8z m32 -118 c20
-1 21 -2 5 -14 -10 -7 -15 -16 -11 -19 3 -4 2 -7 -4 -7 -12 0 -23 24 -22 48 0
11 2 12 6 5 2 -7 14 -13 26 -13z"/>
<path d="M1010 1281 c-15 -30 -12 -56 11 -82 22 -25 22 -20 0 23 -12 24 -12
31 3 53 9 14 12 25 7 25 -6 0 -15 -9 -21 -19z"/>
<path d="M1126 1275 c15 -22 15 -29 3 -53 -22 -43 -22 -48 0 -23 12 13 21 32
21 43 0 24 -18 58 -31 58 -5 0 -2 -11 7 -25z"/>
<path d="M1047 1263 c-4 -3 -7 -14 -7 -24 0 -20 41 -36 59 -24 14 8 14 55 0
55 -5 0 -7 -5 -4 -10 4 -6 4 -18 0 -28 -5 -14 -7 -14 -15 -2 -7 11 -10 12 -10
2 0 -7 -5 -10 -11 -6 -6 3 -9 15 -6 25 5 20 4 23 -6 12z"/>
<path d="M510 1218 c0 -12 -8 -18 -22 -18 -21 -1 -22 -2 -5 -14 9 -7 15 -20
12 -27 -4 -10 3 -14 25 -14 22 0 29 4 25 14 -3 7 3 20 12 27 17 13 17 13 -1
14 -10 0 -25 8 -32 18 -13 16 -13 16 -14 0z"/>
<path d="M1620 1218 c0 -13 -8 -18 -27 -18 -25 0 -26 -1 -8 -14 12 -8 16 -20
13 -34 -5 -18 -3 -19 12 -10 14 9 22 9 35 -2 15 -12 16 -11 10 12 -5 19 -2 29
12 37 17 10 16 10 -4 11 -12 0 -27 8 -32 18 -10 16 -10 16 -11 0z"/>
<path d="M1054 1188 c-4 -7 -3 -8 4 -4 7 4 12 3 12 -2 0 -6 -6 -12 -13 -15
-13 -5 -40 -77 -32 -85 2 -2 7 7 11 22 3 14 10 26 15 26 5 0 6 7 3 15 -4 8 -1
15 5 15 6 0 11 -13 11 -30 0 -17 -5 -30 -12 -30 -9 0 -10 -3 -2 -8 6 -4 14
-14 17 -22 4 -13 6 -12 6 1 1 18 41 34 41 16 0 -6 2 -8 6 -5 3 3 -2 21 -10 39
-13 30 -14 30 -10 7 5 -21 2 -28 -10 -28 -19 0 -23 56 -4 62 16 6 2 38 -16 38
-8 0 -18 -5 -22 -12z"/>
<path d="M335 1180 c-3 -5 1 -10 9 -10 9 0 16 5 16 10 0 6 -4 10 -9 10 -6 0
-13 -4 -16 -10z"/>
<path d="M1271 1053 c2 -79 6 -70 11 25 2 28 0 52 -4 52 -5 0 -7 -35 -7 -77z"/>
<path d="M529 1062 c6 -11 7 -23 3 -27 -4 -5 -2 -5 5 -1 7 4 10 13 6 21 -3 8
0 15 5 15 6 0 13 -8 16 -17 4 -14 4 -14 3 2 -1 13 -11 21 -25 23 -21 3 -22 1
-13 -16z"/>
<path d="M385 1060 c3 -5 13 -10 21 -10 8 0 14 5 14 10 0 6 -9 10 -21 10 -11
0 -17 -4 -14 -10z"/>
<path d="M1613 1063 c9 -2 23 -2 30 0 6 3 -1 5 -18 5 -16 0 -22 -2 -12 -5z"/>
<path d="M1605 1040 c3 -4 -2 -10 -10 -14 -8 -3 -15 -11 -15 -18 0 -10 2 -10
9 0 6 10 10 8 14 -8 6 -25 27 -18 26 8 0 14 -2 13 -9 -3 -8 -19 -9 -19 -9 2
-1 13 6 23 17 25 14 3 13 5 -6 10 -12 3 -20 3 -17 -2z"/>
<path d="M525 1010 c-8 -13 3 -30 20 -30 20 0 29 20 16 33 -9 9 -11 8 -6 -5 5
-13 2 -18 -10 -18 -11 0 -15 5 -11 15 6 17 0 20 -9 5z"/>
<path d="M1722 998 c6 -16 33 -22 56 -13 15 6 15 8 -3 15 -31 13 -57 12 -53
-2z"/>
<path d="M548 963 c6 -2 12 -9 12 -14 0 -6 -5 -7 -12 -3 -7 4 -8 3 -4 -4 5 -9
13 -9 27 -2 10 6 19 13 19 16 0 3 -4 3 -9 -1 -5 -3 -12 -1 -16 5 -3 5 -12 10
-18 9 -9 0 -9 -2 1 -6z"/>
<path d="M1120 950 c0 -5 5 -10 11 -10 5 0 7 5 4 10 -3 6 -8 10 -11 10 -2 0
-4 -4 -4 -10z"/>
<path d="M1570 950 c8 -5 20 -10 25 -10 6 0 3 5 -5 10 -8 5 -19 10 -25 10 -5
0 -3 -5 5 -10z"/>
<path d="M1150 945 c0 -7 30 -13 34 -7 3 4 -4 9 -15 9 -10 1 -19 0 -19 -2z"/>
<path d="M1681 926 c-10 -12 -6 -26 10 -26 11 0 19 29 10 35 -5 2 -14 -1 -20
-9z"/>
<path d="M1578 923 c7 -3 16 -2 19 1 4 3 -2 6 -13 5 -11 0 -14 -3 -6 -6z"/>
<path d="M1535 909 c-11 -17 3 -23 27 -11 l23 12 -24 -6 c-16 -4 -21 -3 -17 5
4 6 5 11 2 11 -3 0 -8 -5 -11 -11z"/>
<path d="M598 903 c7 -3 16 -2 19 1 4 3 -2 6 -13 5 -11 0 -14 -3 -6 -6z"/>
<path d="M614 886 c-15 -11 -22 -12 -34 -3 -13 10 -13 10 -2 -5 13 -16 16 -16
38 -1 13 8 24 17 24 19 0 7 -5 5 -26 -10z"/>
<path d="M1525 859 c-5 -14 -12 -18 -23 -14 -9 3 -13 3 -10 -1 4 -4 3 -16 -3
-27 -8 -14 -8 -18 0 -13 6 4 11 3 11 -3 0 -6 -15 -15 -32 -20 -22 -6 -26 -10
-13 -10 11 -1 31 6 43 15 18 13 21 19 11 30 -8 9 -8 14 -1 14 6 0 16 -8 22
-17 9 -15 11 -15 7 -2 -3 9 0 22 6 29 9 10 9 11 -2 5 -10 -6 -12 -2 -6 14 3
11 4 21 1 21 -2 0 -8 -9 -11 -21z"/>
<path d="M980 839 c0 -5 5 -7 10 -4 6 3 10 8 10 11 0 2 -4 4 -10 4 -5 0 -10
-5 -10 -11z"/>
<path d="M1101 834 c0 -11 3 -14 6 -6 3 7 2 16 -1 19 -3 4 -6 -2 -5 -13z"/>
<path d="M681 821 c-8 -5 -19 -8 -25 -7 -6 2 -8 1 -3 -1 4 -3 4 -9 1 -15 -4
-5 5 -2 20 7 14 10 26 19 26 21 0 6 -3 5 -19 -5z"/>
<path d="M1416 797 c-16 -12 -15 -14 11 -37 22 -20 24 -21 9 -3 -19 23 -13 48
11 39 8 -3 11 -1 8 4 -8 13 -18 13 -39 -3z"/>
<path d="M723 795 c4 -5 -1 -18 -10 -29 -18 -21 -18 -21 4 -3 12 11 27 16 32
12 6 -3 11 -4 11 -1 0 3 -10 11 -22 17 -13 6 -20 8 -15 4z"/>
<path d="M537 784 c-8 -8 3 -34 14 -34 11 0 12 27 0 34 -4 3 -11 3 -14 0z"/>
<path d="M515 750 c-3 -5 -1 -10 4 -10 6 0 11 5 11 10 0 6 -2 10 -4 10 -3 0
-8 -4 -11 -10z"/>
<path d="M724 745 c-8 -19 5 -38 22 -31 8 3 14 -1 14 -11 0 -21 7 -14 12 11 2
12 -3 20 -15 21 -9 2 -15 -1 -11 -6 3 -5 0 -9 -5 -9 -17 0 -13 18 7 29 16 10
16 10 -1 11 -10 0 -20 -7 -23 -15z"/>
<path d="M1391 733 c7 -12 15 -20 18 -17 3 2 -3 12 -13 22 -17 16 -18 16 -5
-5z"/>
<path d="M790 726 c0 -2 8 -10 18 -17 15 -13 16 -12 3 4 -13 16 -21 21 -21 13z"/>
<path d="M1343 720 c-13 -5 -23 -14 -23 -20 0 -6 -5 -8 -11 -4 -8 4 -8 0 0
-15 13 -23 23 -29 16 -8 -7 19 11 41 26 31 27 -17 39 -14 29 7 -6 10 -12 19
-13 18 -1 0 -12 -4 -24 -9z"/>
<path d="M1525 711 c-3 -5 -1 -12 4 -15 13 -8 42 4 35 15 -7 12 -31 12 -39 0z"/>
<path d="M1280 694 c0 -6 7 -19 16 -30 14 -18 14 -18 3 6 -14 31 -19 36 -19
24z"/>
<path d="M827 675 c-4 -9 -3 -13 3 -10 6 3 10 0 10 -7 0 -8 5 -6 11 5 14 25
32 21 24 -5 -5 -18 -4 -20 4 -8 10 13 11 13 11 0 0 -12 2 -12 9 -2 6 10 10 9
14 -7 3 -12 11 -21 19 -21 10 0 10 2 -1 9 -8 5 -11 16 -8 26 4 9 3 14 -3 10
-6 -3 -10 0 -10 7 0 11 -2 10 -9 0 -7 -11 -9 -11 -14 2 -7 19 -37 22 -37 4 0
-10 -2 -10 -9 0 -7 11 -9 10 -14 -3z"/>
<path d="M1565 680 c3 -5 8 -10 11 -10 2 0 4 5 4 10 0 6 -5 10 -11 10 -5 0 -7
-4 -4 -10z"/>
<path d="M560 664 c0 -9 5 -14 12 -12 18 6 21 28 4 28 -9 0 -16 -7 -16 -16z"/>
<path d="M1050 641 c0 -17 4 -33 10 -36 5 -3 7 0 4 9 -3 8 2 16 13 19 16 4 16
5 1 6 -10 0 -18 5 -18 10 0 5 8 12 18 14 13 4 11 5 -5 6 -19 1 -23 -4 -23 -28z"/>
<path d="M1132 640 c0 -19 2 -27 5 -17 2 9 2 25 0 35 -3 9 -5 1 -5 -18z"/>
<path d="M1208 663 c7 -3 16 -2 19 1 4 3 -2 6 -13 5 -11 0 -14 -3 -6 -6z"/>
<path d="M1245 650 c-11 -12 -25 -18 -34 -15 -13 5 -13 4 -4 -6 9 -9 16 -9 26
-1 8 7 17 8 21 4 4 -4 7 -2 6 3 -5 21 1 29 10 15 8 -13 10 -12 10 3 0 23 -13
22 -35 -3z"/>
<path d="M1181 643 c-1 -27 -18 -31 -24 -5 -4 15 -5 15 -6 0 0 -9 4 -20 10
-24 15 -9 32 11 26 32 -4 16 -5 15 -6 -3z"/>
<path d="M1101 634 c0 -11 3 -14 6 -6 3 7 2 16 -1 19 -3 4 -6 -2 -5 -13z"/>
<path d="M981 624 c0 -11 3 -14 6 -6 3 7 2 16 -1 19 -3 4 -6 -2 -5 -13z"/>
<path d="M1001 624 c0 -11 3 -14 6 -6 3 7 2 16 -1 19 -3 4 -6 -2 -5 -13z"/>
<path d="M917 450 c-3 -11 -1 -23 4 -26 5 -3 9 6 9 20 0 31 -6 34 -13 6z"/>
<path d="M2213 758 c-43 -14 -42 -25 2 -30 31 -4 35 -1 35 19 0 13 -1 23 -2
22 -2 -1 -18 -6 -35 -11z"/>
</g>
</svg>
